<svg id="Layer_1" data-name="Layer 1" xmlns="http://www.w3.org/2000/svg" viewBox="0 0 116.1 118.5"><defs><style>.cls-1{fill:none;stroke:#fff;stroke-miterlimit:10;}.cls-2{fill:#301a0e;}.cls-3{fill:#efa224;}.cls-4{fill:#efa325;}.cls-5{fill:#f2b62b;}.cls-6{fill:#c25027;}.cls-7{fill:#2f1911;}</style></defs><title>피자파비콘</title><path class="cls-1" d="M248.3,361.8" transform="translate(-253.6 -374.6)"/><path class="cls-1" d="M241.5,361" transform="translate(-253.6 -374.6)"/><path class="cls-2" d="M260.8,405.9s-10.1-7-6.5-16.8a14.1,14.1,0,0,1,7.1-7.5c7.2-3.5,24.6-9.6,53.7-5.9,39.4,5.1,51.4,17.7,51.4,17.7s8.5,7.9-2.2,20.5c0,0-39.7,74-56.4,78.7,0,0-6.3,2.2-13.7-3.4C294.2,489.2,269,457,260.8,405.9Z" transform="translate(-253.6 -374.6)"/><path class="cls-3" d="M261.2,388.3s12.7-9.6,42.3-8.1,40.8,6.9,51.2,12.4c0,0-8.4,6.5-5.1,16.4,0,0-23-12.8-47-12.3,0,0-22.4-.7-37.8,4.1,0,0-3,1.6-5.7-4.7C259.1,396.1,257.3,391.3,261.2,388.3Z" transform="translate(-253.6 -374.6)"/><path class="cls-4" d="M354.1,404.2a8.6,8.6,0,0,1,1.3-5.2c1.5-2.3,4.9-4.5,7.6-1.8,0,0,4,3.3-.7,11.1s-11.7,19.8-11.7,19.8l-12.1,20.7a85,85,0,0,1-4.7,7.5l-7,10.3c-.9,1.3-1.8,2.5-2.8,3.7l-3.8,4.8a87.7,87.7,0,0,1-11.3,11.5l-1.3,1,12.3-15.3,3.4-4.5,10.2-15-.6,1,13.3-22.5,9.4-17.4a.4.4,0,0,0,.1-.3.3.3,0,0,0,.1-.2,6.4,6.4,0,0,0-.4-4.3A14.3,14.3,0,0,1,354.1,404.2Z" transform="translate(-253.6 -374.6)"/><path class="cls-5" d="M320.7,434.5a8.6,8.6,0,1,1,17.1,0,7.7,7.7,0,0,1-.2,1.5c6.1-10.6,11.6-20.8,11.6-20.8-38.8-23.3-83.2-9.1-83.2-9.1,1.5,7.2,3,13.8,4.6,19.9a7.7,7.7,0,0,1,6.3-3.3,8.1,8.1,0,0,1,0,16.2,6.7,6.7,0,0,1-2.8-.6c1.3,4.2,2.6,8,3.8,11.5a8.2,8.2,0,0,1,7.9-3.4c4.5.4,9.3,4.5,9.3,10s-4.4,10.1-9.3,10.1H285c6.8,13.6,12,18.1,12,18.1a3.6,3.6,0,0,0,4.4,1.4c3.2-2.1,7.9-7.7,12.3-13.5h-.8c-5.6,0-8.9-4.3-8.9-9.7s3.3-9.7,8.9-9.7,8.3,2.1,9.9,6.8l2-2.7c2.3-3.2,6.1-9.4,10-16.1a8.8,8.8,0,0,1-5.5,2A8.6,8.6,0,0,1,320.7,434.5Z" transform="translate(-253.6 -374.6)"/><path class="cls-6" d="M284.8,430.8a8,8,0,0,0-7.9-8.1,7.7,7.7,0,0,0-6.3,3.3c1.1,4.4,2.3,8.5,3.5,12.3a6.7,6.7,0,0,0,2.8.6A8,8,0,0,0,284.8,430.8Z" transform="translate(-253.6 -374.6)"/><path class="cls-6" d="M337.8,434.5a8.6,8.6,0,1,0-8.5,8.5,8.8,8.8,0,0,0,5.5-2l2.8-5A7.7,7.7,0,0,0,337.8,434.5Z" transform="translate(-253.6 -374.6)"/><path class="cls-6" d="M295.1,456.4c0-5.5-4.8-9.6-9.3-10a8.2,8.2,0,0,0-7.9,3.4c2.5,6.6,4.9,12.1,7.1,16.6h.8C290.7,466.5,295.1,462,295.1,456.4Z" transform="translate(-253.6 -374.6)"/><path class="cls-6" d="M312.9,453c-5.6,0-8.9,4.4-8.9,9.7s3.3,9.7,8.9,9.7h.8c3.5-4.6,6.8-9.2,9.1-12.6C321.2,455.1,317.5,453,312.9,453Z" transform="translate(-253.6 -374.6)"/><ellipse class="cls-7" cx="317.1" cy="418.2" rx="6.6" ry="5" transform="translate(-384.1 317.5) rotate(-84.3)"/><path class="cls-7" d="M291.1,433.8c.2,2.3,1.7,7.5,10.3,8.8a11.9,11.9,0,0,0,4.6-.1,13.5,13.5,0,0,0,8.8-5.8,3.8,3.8,0,0,0,.4-3.3,1.8,1.8,0,0,0-1.5-1.4,1.9,1.9,0,0,0-2.1,1c-.9,1.4-2.8,4-5.7,4.8,0,0-5.6.9-7.5-1.2a7.6,7.6,0,0,1-3.6-4.2s-1.2-1.6-2.7-.8A2.3,2.3,0,0,0,291.1,433.8Z" transform="translate(-253.6 -374.6)"/><ellipse class="cls-7" cx="289.7" cy="417.2" rx="6.6" ry="5" transform="translate(-407.7 289.4) rotate(-84.3)"/></svg>